<svg
   xmlns:svg="http://www.w3.org/2000/svg"
   xmlns="http://www.w3.org/2000/svg"
   version="1.1"
   viewBox="0 0 145 107"
   >
     <g
       style="fill:white;fill-opacity:1"
       aria-label="quotation mark">
       <path
       d="m 36.855946,-0.05833667 c -10.345623,0 -19.074381,3.55054627 -26.186998,10.65159367 C 3.5563316,17.694304 0,26.32847 0,36.495879 c 0,10.006018 3.5563316,18.640189 10.668948,25.902622 7.274268,7.262438 15.922502,10.893886 25.944826,10.893886 5.334463,0 11.31519,-1.533586 17.942856,-4.599948 -2.101453,8.71492 -8.486336,16.219506 -19.155259,22.513617 -10.507278,6.455495 -21.74198,9.683444 -33.7041088,9.683444 l 4.8496158,6.05216 h 1.2124039 c 16.1650401,0 30.2282901,-4.76103 42.1904191,-14.282879 11.962129,-9.360468 20.044651,-22.19088 24.247564,-38.49101 8.082515,12.749606 18.913069,19.124616 32.491705,19.124616 5.81941,0 11.80066,-1.533586 17.94337,-4.599948 -2.74806,9.199079 -9.13346,16.864961 -19.15578,22.997686 -10.022321,6.132722 -21.095465,9.199375 -33.219246,9.199375 h -0.727028 l 4.849615,6.05216 c 11.153877,-0.16138 21.095087,-2.17885 29.824199,-6.05216 8.72913,-3.711897 15.43764,-8.069434 20.1255,-13.072448 4.68786,-5.003006 8.48679,-10.651418 11.39649,-16.94553 3.07137,-6.294109 5.01109,-11.700829 5.81934,-16.219682 C 144.51532,50.132995 145,46.178956 145,42.789814 145,30.524372 141.28211,20.35713 133.8462,12.287758 126.57192,4.0569986 117.43902,-0.05833667 106.44679,-0.05833667 c -7.920866,0 -15.114563,2.34006267 -21.580576,7.02029837 C 78.561848,11.48081 74.116694,17.371419 71.530286,24.633853 64.41767,8.172335 52.859335,-0.05833667 36.855946,-0.05833667 Z"
        />
     </g>
</svg>
